<?xml version="1.0" standalone="no"?>
<!DOCTYPE svg PUBLIC "-//W3C//DTD SVG 20010904//EN"
 "http://www.w3.org/TR/2001/REC-SVG-20010904/DTD/svg10.dtd">
<svg version="1.0" xmlns="http://www.w3.org/2000/svg"
 width="600.000000pt" height="600.000000pt" viewBox="0 0 600.000000 600.000000"
 preserveAspectRatio="xMidYMid meet">
<metadata>
Created by potrace 1.14, written by Peter Selinger 2001-2017
</metadata>
<g transform="translate(0.000000,600.000000) scale(0.100000,-0.100000)"
fill="#000000" stroke="none">
<path d="M804 5425 c-50 -50 0 -164 218 -491 187 -281 300 -433 344 -464 71
-48 168 -33 219 34 49 64 67 132 67 251 1 125 -4 163 -32 241 -41 117 -125
196 -305 286 -136 68 -348 146 -429 157 -54 7 -62 6 -82 -14z"/>
<path d="M4546 4593 c-113 -16 -293 -60 -461 -113 -71 -22 -137 -42 -146 -44
-8 -2 -49 -15 -90 -29 -197 -67 -748 -215 -909 -243 -14 -3 -43 -10 -65 -16
-22 -5 -51 -12 -65 -15 -14 -2 -65 -13 -115 -24 -49 -11 -157 -31 -240 -44
-185 -31 -221 -41 -246 -66 -24 -24 -24 -30 1 -57 59 -63 193 -114 343 -132
76 -9 454 -5 522 5 22 3 69 10 104 16 51 8 66 7 72 -3 18 -27 51 -163 64 -263
3 -22 8 -51 10 -65 19 -110 26 -770 11 -1110 -14 -345 -17 -396 -20 -465 -2
-38 -7 -126 -11 -195 -4 -69 -7 -126 -8 -126 -2 -2 -55 -10 -127 -19 -14 -2
-52 -6 -85 -10 -33 -3 -67 -8 -75 -10 -8 -2 -40 -7 -70 -10 -30 -3 -66 -8 -80
-10 -14 -2 -49 -7 -79 -10 -30 -4 -63 -9 -75 -11 -12 -2 -48 -6 -81 -9 -33 -3
-71 -8 -85 -10 -37 -6 -177 -23 -240 -30 -30 -3 -66 -8 -80 -10 -27 -5 -96
-13 -175 -20 -27 -3 -70 -8 -95 -11 -92 -11 -116 -13 -170 -19 -131 -12 -182
-16 -295 -21 -137 -5 -151 -8 -166 -35 -27 -52 98 -156 281 -232 36 -15 76
-30 90 -33 14 -2 47 -9 73 -14 63 -13 158 -6 282 19 55 11 114 22 130 25 60
11 141 26 165 31 14 3 36 7 50 10 14 2 66 12 115 20 50 9 130 23 178 30 49 8
96 16 105 19 10 3 40 7 67 10 28 3 59 8 71 10 12 2 45 7 74 11 29 4 60 8 69
10 9 1 43 6 76 10 32 4 68 9 78 11 10 2 46 6 80 9 34 3 69 8 77 10 8 2 53 7
100 10 47 4 96 8 110 10 28 4 121 11 290 22 148 10 796 10 965 0 138 -8 228
-14 310 -22 28 -2 84 -7 125 -10 78 -6 106 -8 230 -21 414 -40 514 72 276 311
-132 132 -260 202 -439 241 -95 21 -308 21 -407 1 -41 -9 -88 -18 -105 -21
-28 -4 -306 -51 -367 -61 -53 -9 -83 -14 -128 -20 -25 -3 -70 -10 -100 -15
-62 -10 -80 -13 -275 -41 -77 -11 -158 -23 -180 -26 -95 -14 -90 -17 -89 67 1
64 12 394 19 585 4 95 15 283 21 360 3 39 7 99 10 135 2 36 6 81 9 100 2 19 7
62 10 95 3 33 10 83 15 110 5 28 12 66 15 85 10 61 53 171 90 231 53 86 45
129 -38 206 -68 63 -213 147 -350 202 -32 13 -56 26 -53 28 5 5 83 24 271 64
77 17 147 32 155 34 8 2 49 11 90 20 41 9 100 22 130 30 30 8 71 17 90 20 19
3 43 8 52 11 9 3 26 7 37 9 12 3 29 7 39 9 9 2 58 13 107 25 50 11 142 32 205
46 63 15 122 28 130 30 81 16 236 61 280 81 135 62 158 140 65 222 -45 40
-161 92 -251 113 -72 16 -197 17 -298 2z"/>
<path d="M158 3863 c-43 -11 -35 -90 18 -180 79 -133 377 -525 472 -619 55
-55 138 -97 179 -90 15 2 33 5 39 5 22 2 71 62 84 104 23 72 21 240 -5 385 -9
50 -56 133 -99 174 -56 54 -139 96 -292 147 -199 67 -330 92 -396 74z"/>
<path d="M1602 2883 c-52 -51 -340 -428 -837 -1098 -234 -315 -358 -424 -555
-485 -98 -31 -115 -91 -76 -265 2 -11 9 -42 16 -70 37 -161 154 -453 220 -550
143 -207 276 -142 315 155 14 108 113 383 222 620 52 112 95 206 115 250 47
103 235 485 455 925 205 411 235 476 236 520 2 47 1 50 -25 53 -22 3 -39 -9
-86 -55z"/>
</g>
</svg>
